<svg version="1.2" xmlns="http://www.w3.org/2000/svg" viewBox="0 0 2000 2000" width="2000" height="2000">
	<defs>
		<linearGradient id="g1" x2="1" gradientUnits="userSpaceOnUse" gradientTransform="matrix(454.3,0,0,539,814.9,995.5)">
			<stop offset="0" stop-color="#ffd459"/>
			<stop offset="1" stop-color="#ff964f"/>
		</linearGradient>
	</defs>
	<style>
		.s0 { fill: #ff964f } 
		.s1 { fill: #ffd459 } 
		.s2 { fill: url(#g1) } 
		.s3 { fill: #49330b } 
	</style>
	<path id="H" class="s0" d="m479.58 740.4v204.82q0 15.4 15.4 15.4h134.75q15.4 0 15.4-15.4v-204.82q0-15.4 15.4-15.4h110.88q15.4 0 15.4 15.4v508.2q0 15.4-15.4 15.4h-110.88q-15.4 0-15.4-15.4v-201.74q0-15.4-15.4-15.4h-134.75q-15.4 0-15.4 15.4v201.74q0 15.4-15.4 15.4h-110.88q-15.4 0-15.4-15.4v-508.2q0-15.4 15.4-15.4h110.88q15.4 0 15.4 15.4z"/>
	<path id="N" class="s1" d="m1226.6 726h127.82q7.7 0 13.09 7.7l172.48 287.21q13.09 21.56 20.79 19.25 7.7-2.31 7.7-26.95v-271.81q0-15.4 15.4-15.4h44.66q15.4 0 15.4 15.4v508.2q0 15.4-15.4 15.4h-107.03q-7.7 0-13.09-7.7l-193.27-321.09q-13.09-21.56-20.79-19.25-7.7 2.31-7.7 26.95v305.69q0 15.4-15.4 15.4h-44.66q-15.4 0-15.4-15.4v-508.2q0-15.4 15.4-15.4z"/>
	<path id="B" fill-rule="evenodd" class="s2" d="m1196.05 950.84q-13.86 16.17 3.85 29.26 30.8 21.56 50.05 56.98 19.25 35.42 19.25 74.69 0 30.8-12.32 58.52-12.32 27.72-33.88 49.28-20.79 20.79-49.28 33.11-28.49 12.32-60.83 12.32h-282.59q-15.4 0-15.4-15.4v-508.2q0-15.4 15.4-15.4h254.1q29.26 0 55.44 11.55 26.18 10.78 45.43 30.03 19.25 19.25 30.03 43.89 11.55 24.64 11.55 52.36 0 24.64-8.47 46.97-8.47 22.33-22.33 40.04zm-238.7 80.85v148.61q0 15.4 15.4 15.4h90.09q20.79-1.54 35.42-26.95 14.63-26.18 14.63-63.14 0-36.19-14.63-61.6-14.63-26.18-35.42-27.72h-90.09q-15.4 0-15.4 15.4zm69.3-236.39h-53.9q-15.4 0-15.4 15.4v120.89q0 15.4 15.4 15.4h53.9q19.25 0 30.8-20.79 12.32-21.56 12.32-56.21 0-33.11-11.55-53.9-11.55-20.79-31.57-20.79z"/>
	<path id="F" class="s3" d="m650.67 1298.26v-8.71h-63.83v86.45h10.79v-39.52h49.14v-8.58h-49.14v-29.64z"/>
	<path id="I" class="s3" d="m766.03 1299.26v-8.71h-47.32v8.71h18.33v69.03h-18.33v8.71h47.32v-8.71h-18.33v-69.03z"/>
	<path id="N" class="s3" d="m897.76 1290.55v79.17c-1.69-3.9-3.77-8.19-5.46-11.18l-39.26-67.99h-18.2v86.45h10.79v-79.17q2.14 5.07 5.46 11.31l39.26 67.86h18.07v-86.45z"/>
	<path id="L" class="s3" d="m991.63 1369.29v-77.74h-10.79v86.45h56.03v-8.71z"/>
	<path id="A" fill-rule="evenodd" class="s3" d="m1160.95 1354.9h-42.9l-8.45 22.1h-10.79l32.76-86.45h15.99l32.76 86.45h-10.92zm-3.25-8.71l-18.2-47.84-18.2 47.84z"/>
	<path id="N" class="s3" d="m1309.76 1291.55v79.17c-1.69-3.9-3.77-8.19-5.46-11.18l-39.26-67.99h-18.2v86.45h10.79v-79.17q2.15 5.07 5.46 11.31l39.26 67.86h18.07v-86.45z"/>
	<path id="D" fill-rule="evenodd" class="s3" d="m1468.02 1334.58c0 23.79-11.96 43.42-40.3 43.42h-35.88v-86.45h35.88c28.34 0 40.3 19.5 40.3 43.03zm-11.31 0c0-21.97-7.8-34.32-30.94-34.32h-23.14v69.03h23.14c23.01 0 30.94-12.74 30.94-34.71z"/>
</svg>